<svg xmlns="http://www.w3.org/2000/svg" xmlns:xlink="http://www.w3.org/1999/xlink" width="136.318" height="304.457" data-name="Layer 1" viewBox="0 0 136.318 304.457"><path fill="#daa081" d="M598.71072,410.09354c-42.80231,59.71127-45.28393,131.21608-6.66815,192.13512C595.62593,540.26865,599.20925,478.30862,598.71072,410.09354Z" transform="translate(-531.84085 -297.77134)"/><path d="M667.48807,421.10261c-4.86867-21.46276-13.09038-41.97485-21.60846-62.20891-7.679-17.31758-14.74724-35.13566-25.02045-51.11842-5.0065-8.19786-15.71941-14.32667-23.64-6.12488-8.94022,12.20836-13.68364,26.98784-20.56345,40.39424-15.20005,33.33676-30.954,66.45053-44.81482,100.37426,23.694-29.83043,47.1108-60.07436,66.18273-93.13545q3.03361-5.41791,5.904-10.92962c-.11844.38258-.25889.94753-.43184,1.77452C592.02657,383.04288,586.36052,427.5,585.49867,471.883c.18527,43.69618,5.425,87.2244,12.14626,130.34566,10.54756-66.74375,16.27388-134.4987,11.98353-202.04822-.99469-18.91733-2.66545-37.794-4.70122-56.62594-.38782-1.60681-.29873-5.80781-.69074-5.79287q1.88589-3.63264,3.64993-7.32423c1.86965,3.21625,3.69841,6.45793,5.57932,9.6637,13.16821,23.26113,28.07766,45.45629,43.41213,67.32967q5.71388,8.30255,11.28127,16.70441C667.93354,423.1266,667.72181,422.11146,667.48807,421.10261Z" transform="translate(-531.84085 -297.77134)"/></svg>